<?xml version="1.0" encoding="UTF-8"?>
<svg id="Layer_1" xmlns="http://www.w3.org/2000/svg" version="1.1" viewBox="0 0 446.22 77.92">
  <!-- Generator: Adobe Illustrator 29.8.2, SVG Export Plug-In . SVG Version: 2.1.1 Build 3)  -->
  <defs>
    <style>
      .st0 {
        fill: #f78f3b;
      }

      .st1 {
        fill: #fff;
      }
    </style>
  </defs>
  <g>
    <g>
      <path class="st0" d="M18.11,29.12c-6.77,2.5-14.91,2.67-17.42.35-2.32-2.15,1.4-5.43,7.7-7.34,5.84-1.76,12.36-1.86,15.11-.24,2.94,1.73.81,4.95-5.39,7.23Z"/>
      <path class="st0" d="M37.42,21.08c-4.08,1.48-9.65,1.57-12.07.19-2.29-1.31-.69-3.36,3.28-4.57,3.75-1.15,8.51-1.21,10.92-.14,2.53,1.12,1.72,3.14-2.12,4.53Z"/>
      <path class="st0" d="M51.82,15.09c-2.46.87-6.2.92-8.18.1-1.91-.79-1.36-2.05,1.09-2.81,2.35-.73,5.71-.77,7.63-.08,1.99.71,1.82,1.96-.54,2.8Z"/>
      <path class="st0" d="M62.97,10.45c-1.42.49-3.78.52-5.22.05-1.4-.46-1.33-1.19.1-1.65,1.39-.44,3.6-.46,4.99-.04,1.42.43,1.51,1.16.13,1.64Z"/>
    </g>
    <g>
      <path class="st0" d="M31.28,38.59c-7.24,3.43-16.73,3.69-20.17.51-3.14-2.91.47-7.3,7.25-9.81,6.21-2.3,13.58-2.44,17.14-.34,3.84,2.26,2.33,6.54-4.21,9.64Z"/>
      <path class="st0" d="M51.07,27.88c-4.17,1.93-10.49,2.06-13.64.27-2.96-1.69-1.71-4.32,2.4-5.87,3.86-1.46,9.16-1.54,12.18-.2,3.2,1.42,2.95,4-.94,5.8Z"/>
      <path class="st0" d="M65.22,20.22c-2.44,1.1-6.59,1.17-9.08.14-2.39-.98-2.18-2.56.28-3.5,2.35-.91,6.04-.96,8.41-.11,2.46.88,2.71,2.43.39,3.48Z"/>
      <path class="st0" d="M75.86,14.46c-1.37.61-3.97.64-5.72.07-1.7-.55-1.89-1.45-.49-2,1.36-.53,3.76-.56,5.44-.06,1.72.51,2.09,1.4.76,1.99Z"/>
    </g>
    <g>
      <path class="st0" d="M49.65,51.81c-7.58,5-18.96,5.41-23.96.79-4.48-4.15-1.32-10.3,5.92-13.76,6.55-3.13,15.01-3.33,19.8-.5,5.24,3.08,4.95,9.04-1.76,13.48Z"/>
      <path class="st0" d="M69.06,36.85c-4.11,2.63-11.41,2.82-15.68.39-3.97-2.26-3.38-5.76.8-7.8,3.89-1.91,9.86-2.02,13.78-.28,4.17,1.85,4.89,5.27,1.09,7.7Z"/>
      <path class="st0" d="M82.21,26.72c-2.31,1.43-6.99,1.52-10.2.2-3.06-1.27-3.41-3.27-1-4.48,2.29-1.15,6.39-1.22,9.37-.16,3.1,1.11,4.03,3.09,1.84,4.44Z"/>
      <path class="st0" d="M91.71,19.4c-1.27.76-4.14.8-6.32.09-2.12-.69-2.68-1.8-1.36-2.48,1.28-.66,3.93-.7,5.99-.08,2.12.63,2.92,1.74,1.69,2.47Z"/>
    </g>
    <g>
      <path class="st0" d="M77.04,71.52c-7.35,7.94-21.57,8.64-29.49,1.31-6.92-6.4-5.01-15.63,2.57-20.68,6.71-4.47,16.64-4.78,23.43-.77,7.55,4.45,9.81,13.31,3.49,20.14Z"/>
      <path class="st0" d="M93.87,49.22c-3.68,3.78-12.31,4.07-18.42.59-5.61-3.19-6.26-8.06-2.19-10.87,3.74-2.58,10.58-2.75,15.86-.41,5.67,2.51,8.1,7.25,4.75,10.68Z"/>
      <path class="st0" d="M104.43,35.22c-1.98,1.92-7.34,2.06-11.64.28-4.08-1.68-5.33-4.34-3.11-5.93,2.1-1.5,6.71-1.59,10.56-.22,4.05,1.44,6.05,4.05,4.19,5.87Z"/>
      <path class="st0" d="M111.68,25.61c-1.05.98-4.27,1.04-7.06.13-2.7-.88-3.85-2.3-2.68-3.17,1.13-.84,4.06-.89,6.65-.11,2.67.8,4.11,2.2,3.09,3.15Z"/>
    </g>
  </g>
  <path class="st1" d="M162.76,61.47v-21.91h-20.04v21.91h-15.18V5.74h15.18v20.82h20.04V5.74h15.18v55.72h-15.18Z"/>
  <path class="st1" d="M180.29,50.04c0-6.34,3.52-11.66,14.09-12.52l9.16-.78c2.35-.23,3.05-1.17,3.05-2.35,0-2.66-1.72-4.07-4.7-4.07s-4.62,1.41-5.01,4.07h-14.4c0-8.53,5.56-14.09,19.25-14.09s19.25,5.56,19.25,14.09v16.75c0,5.48.47,9,1.25,10.33h-13.15c-1.1-1.25-1.72-2.82-1.72-4.7-2.35,3.6-5.63,5.48-12.21,5.48-9.78,0-14.87-4.77-14.87-12.21ZM206.58,45.74v-1.41c-.39.31-1.57.55-3.13.7l-3.83.31c-3.6.23-4.93,1.64-4.93,3.6,0,2.43,1.49,3.76,4.77,3.76,4.38,0,7.12-3.13,7.12-6.97Z"/>
  <path class="st1" d="M239.3,55.99v5.48h-13.62V5.74h14.4v19.64c2.19-3.05,5.4-5.09,10.64-5.09,10.88,0,18,7.75,18,20.97s-7.12,20.97-18,20.97c-6.26,0-9.31-2.82-11.43-6.26ZM254.32,41.27c0-7.04-2.82-10.17-7.12-10.17s-7.12,3.13-7.12,10.17,2.82,10.17,7.12,10.17,7.12-3.13,7.12-10.17Z"/>
  <path class="st1" d="M271.86,61.47V21.08h14.4v40.38h-14.4Z"/>
  <path class="st1" d="M294.32,47.93v-16.83h-5.71v-10.02h5.71v-12.21h14.4v12.21h7.59v10.02h-7.59v17.37c0,2.35,1.1,3.44,3.44,3.44h4.15v9.55c-1.88.16-5.79.47-7.9.47-10.8,0-14.09-3.44-14.09-14.01Z"/>
  <path class="st1" d="M344.25,61.47h-23.56V5.74h23.56c18.78,0,29.04,10.1,29.04,27.86s-10.25,27.86-29.04,27.86ZM345.03,17.64h-9.16v31.93h9.16c8.69,0,13.07-5.24,13.07-15.97s-4.38-15.97-13.07-15.97Z"/>
  <path class="st1" d="M424.23,47.93v-16.83h-5.71v-10.02h5.71v-12.21h14.4v12.21h7.59v10.02h-7.59v17.37c0,2.35,1.1,3.44,3.44,3.44h4.15v9.55c-1.88.16-5.79.47-7.9.47-10.8,0-14.09-3.44-14.09-14.01Z"/>
  <circle class="st0" cx="396.98" cy="41.37" r="21.11"/>
  <circle class="st1" cx="279.49" cy="8.88" r="8.88"/>
</svg>