<?xml version="1.0" encoding="UTF-8"?>
<svg id="Layer_1" xmlns="http://www.w3.org/2000/svg" version="1.1" viewBox="0 0 546.63 77.92">
  <!-- Generator: Adobe Illustrator 29.8.2, SVG Export Plug-In . SVG Version: 2.1.1 Build 3)  -->
  <defs>
    <style>
      .st0 {
        fill: #f78f3b;
      }

      .st1 {
        fill: #fff;
      }
    </style>
  </defs>
  <g>
    <g>
      <path class="st0" d="M18.11,29.12c-6.77,2.5-14.91,2.67-17.42.35-2.32-2.15,1.4-5.43,7.7-7.34,5.84-1.76,12.36-1.86,15.11-.24,2.94,1.73.81,4.95-5.39,7.23Z"/>
      <path class="st0" d="M37.42,21.08c-4.08,1.48-9.65,1.57-12.07.19-2.29-1.31-.69-3.36,3.28-4.57,3.75-1.15,8.51-1.21,10.92-.14,2.53,1.12,1.72,3.14-2.12,4.53h-.01Z"/>
      <path class="st0" d="M51.82,15.09c-2.46.87-6.2.92-8.18.1-1.91-.79-1.36-2.05,1.09-2.81,2.35-.73,5.71-.77,7.63-.08,1.99.71,1.82,1.96-.54,2.8h0Z"/>
      <path class="st0" d="M62.97,10.45c-1.42.49-3.78.52-5.22.05-1.4-.46-1.33-1.19.1-1.65,1.39-.44,3.6-.46,4.99-.04,1.42.43,1.51,1.16.13,1.64Z"/>
    </g>
    <g>
      <path class="st0" d="M31.28,38.59c-7.24,3.43-16.73,3.69-20.17.51-3.14-2.91.47-7.3,7.25-9.81,6.21-2.3,13.58-2.44,17.14-.34,3.84,2.26,2.33,6.54-4.21,9.64h-.01Z"/>
      <path class="st0" d="M51.07,27.88c-4.17,1.93-10.49,2.06-13.64.27-2.96-1.69-1.71-4.32,2.4-5.87,3.86-1.46,9.16-1.54,12.18-.2,3.2,1.42,2.95,4-.94,5.8Z"/>
      <path class="st0" d="M65.22,20.22c-2.44,1.1-6.59,1.17-9.08.14-2.39-.98-2.18-2.56.28-3.5,2.35-.91,6.04-.96,8.41-.11,2.46.88,2.71,2.43.39,3.48h0Z"/>
      <path class="st0" d="M75.86,14.46c-1.37.61-3.97.64-5.72.07-1.7-.55-1.89-1.45-.49-2,1.36-.53,3.76-.56,5.44-.06,1.72.51,2.09,1.4.76,1.99h0Z"/>
    </g>
    <g>
      <path class="st0" d="M49.65,51.81c-7.58,5-18.96,5.41-23.96.79-4.48-4.15-1.32-10.3,5.92-13.76,6.55-3.13,15.01-3.33,19.8-.5,5.24,3.08,4.95,9.04-1.76,13.48h0Z"/>
      <path class="st0" d="M69.06,36.85c-4.11,2.63-11.41,2.82-15.68.39-3.97-2.26-3.38-5.76.8-7.8,3.89-1.91,9.86-2.02,13.78-.28,4.17,1.85,4.89,5.27,1.09,7.7h.01Z"/>
      <path class="st0" d="M82.21,26.72c-2.31,1.43-6.99,1.52-10.2.2-3.06-1.27-3.41-3.27-1-4.48,2.29-1.15,6.39-1.22,9.37-.16,3.1,1.11,4.03,3.09,1.84,4.44h-.01Z"/>
      <path class="st0" d="M91.71,19.4c-1.27.76-4.14.8-6.32.09-2.12-.69-2.68-1.8-1.36-2.48,1.28-.66,3.93-.7,5.99-.08,2.12.63,2.92,1.74,1.69,2.47Z"/>
    </g>
    <g>
      <path class="st0" d="M77.04,71.52c-7.35,7.94-21.57,8.64-29.49,1.31-6.92-6.4-5.01-15.63,2.57-20.68,6.71-4.47,16.64-4.78,23.43-.77,7.55,4.45,9.81,13.31,3.49,20.14Z"/>
      <path class="st0" d="M93.87,49.22c-3.68,3.78-12.31,4.07-18.42.59-5.61-3.19-6.26-8.06-2.19-10.87,3.74-2.58,10.58-2.75,15.86-.41,5.67,2.51,8.1,7.25,4.75,10.68h0Z"/>
      <path class="st0" d="M104.43,35.22c-1.98,1.92-7.34,2.06-11.64.28-4.08-1.68-5.33-4.34-3.11-5.93,2.1-1.5,6.71-1.59,10.56-.22,4.05,1.44,6.05,4.05,4.19,5.87Z"/>
      <path class="st0" d="M111.68,25.61c-1.05.98-4.27,1.04-7.06.13-2.7-.88-3.85-2.3-2.68-3.17,1.13-.84,4.06-.89,6.65-.11,2.67.8,4.11,2.2,3.09,3.15Z"/>
    </g>
  </g>
  <g>
    <path class="st1" d="M154.39,65.85c-14.36,0-25.54-12.08-25.54-27.51s11.17-27.51,25.54-27.51c11.93,0,20.75,6.76,24.02,17.56h-10.87c-2.36-4.79-7.07-8.36-13.15-8.36-8.66,0-15.5,8.36-15.5,18.32s6.84,18.39,15.5,18.39c6,0,10.79-3.72,13.15-8.51h10.79c-3.34,10.72-12.24,17.63-23.94,17.63Z"/>
    <path class="st1" d="M218.23,64.94h-10.03v-22.88c0-2.28-.76-7.45-7.3-7.45-4.48,0-7.6,3.04-7.6,7.45v22.88h-10.11V8.39h10.11v19.46c2.51-1.9,5.55-3.04,8.97-3.04,9.58,0,15.96,6.92,15.96,17.25v22.88Z"/>
    <path class="st1" d="M251.22,61.29c-2.58,2.74-6.54,4.41-12.01,4.41-8.29,0-15.88-4.18-15.88-12.69s7.37-11.1,16.04-11.86c6.54-.61,11.17-1.37,11.17-4.56,0-2.05-2.66-3.72-7.14-3.72-3.57,0-7.68,1.6-8.59,4.94h-10.03c.99-7.45,8.13-13,18.39-13,15.88,0,17.1,10.26,17.1,13.38v20.37c0,1.9.61,4.86,1.14,6.38h-9.2c-.46-.99-.76-2.2-.99-3.65ZM250.91,46.09c-2.13,1.37-5.4,2.05-9.5,2.51-4.94.53-7.98,1.6-7.98,4.48,0,2.2,2.58,3.72,6.61,3.72,6,0,10.87-2.05,10.87-7.07v-3.65Z"/>
    <path class="st1" d="M278.5,21.54h-10.03v-9.35h10.03v9.35ZM278.5,64.94h-10.03V25.79h10.03v39.14Z"/>
    <path class="st1" d="M321.29,64.94h-10.03v-22.88c0-2.28-.68-7.75-7.3-7.75-4.48,0-7.6,3.34-7.6,7.75v22.88h-10.03V25.79h9.58v3.8c2.51-2.96,5.93-4.79,10.11-4.79,9.2,0,15.28,6.92,15.28,17.25v22.88Z"/>
    <path class="st0" d="M365.82,45.4c0,11.71-8.89,20.45-19.76,20.45s-19.68-8.74-19.68-20.45,8.82-20.6,19.68-20.6,19.76,8.89,19.76,20.6ZM355.71,45.48c0-6.76-4.33-11.48-9.65-11.48s-9.65,4.71-9.65,11.48,4.33,11.17,9.65,11.17,9.65-4.56,9.65-11.17Z"/>
    <path class="st0" d="M389,25.95v8.89h-7.07v30.1h-10.03v-30.1h-4.71v-8.89h4.71c.15-10.18,6.31-17.71,17.48-16.42v9.42c-4.79-.38-7.45,1.6-7.45,6.99h7.07Z"/>
    <path class="st1" d="M413.32,64.94h-19.53V12.19h19.53c14.67,0,23.79,10.11,23.79,26.37s-9.35,26.37-23.79,26.37ZM413.32,21.54h-9.5v34.05h9.5c11.93,0,13.76-10.72,13.76-17.1,0-7.75-2.43-16.95-13.76-16.95Z"/>
    <path class="st1" d="M479.82,45.4c0,11.71-8.89,20.45-19.76,20.45s-19.68-8.74-19.68-20.45,8.82-20.6,19.68-20.6,19.76,8.89,19.76,20.6ZM469.71,45.48c0-6.76-4.33-11.48-9.65-11.48s-9.65,4.71-9.65,11.48,4.33,11.17,9.65,11.17,9.65-4.56,9.65-11.17Z"/>
    <path class="st1" d="M503.83,64.86c-11.48,1.22-17.56-5.7-17.56-16.42v-13.76h-4.71v-8.89h4.71v-9.96h10.03v9.96h7.07v8.89h-7.07v13.83c0,5.47,2.51,7.52,7.52,7.22v9.12Z"/>
    <path class="st1" d="M524.66,65.85c-9.96,0-17.33-5.24-18.54-13.68h10.18c1.37,3.34,5.4,4.56,8.36,4.56,4.03,0,7.07-1.22,7.07-3.5s-1.37-3.12-8.21-4.18c-6.99-1.06-16.34-2.96-16.34-11.71,0-6.16,5.4-12.54,16.72-12.54,8.97,0,15.66,4.86,16.95,12.24h-10.41c-.61-1.82-2.81-3.27-6.54-3.27-4.64,0-6.54,1.67-6.54,3.12,0,2.05,2.89,2.74,7.75,3.5,9.73,1.6,16.72,3.72,16.72,12.24,0,7.75-7.14,13.22-17.18,13.22Z"/>
  </g>
</svg>